<?xml version="1.0" encoding="UTF-8" standalone="no"?><!DOCTYPE svg PUBLIC "-//W3C//DTD SVG 1.1//EN" "http://www.w3.org/Graphics/SVG/1.1/DTD/svg11.dtd"><svg width="100%" height="100%" viewBox="0 0 294 38" version="1.1" xmlns="http://www.w3.org/2000/svg" xmlns:xlink="http://www.w3.org/1999/xlink" xml:space="preserve" xmlns:serif="http://www.serif.com/" style="fill-rule:evenodd;clip-rule:evenodd;stroke-linejoin:round;stroke-miterlimit:1.41421;"><path d="M273.5,3.3l2.5,1.4l6,-3.5l-1.7,-1c-0.5,-0.3 -1,-0.3 -1.5,0l-5.3,3.1Zm12,-0.1l-2.4,-1.4l-6.1,3.5l2.5,1.4l6,-3.5Zm-5.4,11.4l2.4,-1.4l0,-7l-2.4,1.4l0,7Zm5.9,-10.5l-2.4,1.5l0,7l2.4,-1.5l0,-7Zm-7,10.5l-2.5,-1.4l0,-7l2.5,1.4l0,7Zm-6,-10.5l2.5,1.5l0,7l-2.5,-1.5l0,-7Zm-7,10.5l2.5,-1.4l0,-7l-1.7,1c-0.5,0.3 -0.7,0.8 -0.7,1.3l-0.1,6.1Zm6,-10.5l-2.5,1.5l0,7l2.5,-1.5l0,-7Z" style="fill:#fff;fill-rule:nonzero;"/><path d="M266,16.3l2.5,1.4l0,7l-1.7,-1c-0.5,-0.3 -0.7,-0.8 -0.7,-1.3l-0.1,-6.1Zm6,10.4l-2.5,-1.4l0,-7l2.5,1.4l0,7Z" style="fill:#fff;fill-rule:nonzero;"/><path d="M293.1,16.3l-2.5,1.4l0,7l1.7,-1c0.5,-0.3 0.7,-0.8 0.7,-1.3l0.1,-6.1Zm-6,10.4l2.5,-1.4l0,-7l-2.5,1.4l0,7Z" style="fill:#fff;fill-rule:nonzero;"/><path d="M293.1,14.6l-2.5,-1.4l0,-7l1.7,1c0.5,0.3 0.7,0.8 0.7,1.3l0.1,6.1Zm-6,-10.5l2.5,1.5l0,7l-2.5,-1.5l0,-7Z" style="fill:#fff;fill-rule:nonzero;"/><path d="M292.6,15.4l-2.5,1.5l-6,-3.5l2.5,-1.5l6,3.5Zm-12,0l2.4,-1.4l6.1,3.5l-2.5,1.4l-6,-3.5Z" style="fill:#fff;fill-rule:nonzero;"/><g><path d="M285.5,27.6l-2.5,-1.4l-6,3.5l1.7,1c0.5,0.3 1,0.3 1.5,0l5.3,-3.1Zm-12,0l2.5,1.5l6,-3.5l-2.4,-1.5l-6.1,3.5Zm5.5,-11.3l-2.5,1.4l0,7l2.5,-1.4l0,-7Zm-6,10.4l2.5,-1.4l0,-7l-2.5,1.4l0,7Z" style="fill:#fff;fill-rule:nonzero;"/><path d="M280.1,16.3l2.4,1.4l0,7l-2.4,-1.4l0,-7Zm5.9,10.4l-2.4,-1.4l0,-7l2.4,1.4l0,7Z" style="fill:#fff;fill-rule:nonzero;"/><g><path d="M279,16.3l-2.5,1.4l0,7l2.5,-1.4l0,-7Zm-6,10.4l2.5,-1.4l0,-7l-2.5,1.4l0,7Z" style="fill:#fff;fill-rule:nonzero;"/><path d="M280.1,16.3l2.4,1.4l0,7l-2.4,-1.4l0,-7Zm5.9,10.4l-2.4,-1.4l0,-7l2.4,1.4l0,7Z" style="fill:#fff;fill-rule:nonzero;"/></g><path d="M278.5,15.4l-2.5,1.5l-6,-3.5l2.5,-1.5l6,3.5Zm-12,0l2.4,-1.4l6.1,3.5l-2.5,1.4l-6,-3.5Z" style="fill:#fff;fill-rule:nonzero;"/></g><path d="M0,22.4c0,-9.2 7,-15.5 15.3,-15.5c8.9,0 12.9,5.7 13.8,10l-6.2,2c-0.5,-2.1 -2.3,-5.5 -7.6,-5.5c-4,0 -8.5,2.9 -8.5,9.1c0,5.6 4.1,8.8 8.6,8.8c5.2,0 7.2,-3.4 7.8,-5.6l6.3,1.8c-1,4.1 -4.9,10.4 -14.1,10.4c-8.5,0 -15.4,-6.2 -15.4,-15.5Zm51.7,8.8l-11.5,0l-2.1,6l-7,0l11.2,-29.7l7.7,0l11,29.7l-7.2,0l-2.1,-6Zm-9.3,-6l7.2,0l-3.6,-10.3l-3.6,10.3Zm32.2,1l-2.3,0l0,11.1l-6.6,0l0,-29.7l11.8,0c5.9,0 9.6,4 9.6,9.3c0,4 -2.2,7.1 -5.9,8.4l6,12l-7.3,0l-5.3,-11.1Zm1.5,-5.7c2.7,0 4.2,-1.5 4.2,-3.6c0,-2.2 -1.5,-3.6 -4.2,-3.6l-3.9,0l0,7.2l3.9,0Zm94.2,-13c5.9,0 9.3,3.4 9.3,8c0,3.1 -1.9,5.6 -4.4,6.4c2.7,0.6 5.3,3.1 5.3,7c0,4.9 -3.7,8.4 -9.3,8.4l-12,0l0,-29.7l11.1,-0.1Zm-1,11.9c2.3,0 3.8,-1.2 3.8,-3.2c0,-1.9 -1.3,-3.2 -3.9,-3.2l-3.5,0l0,6.4l3.6,0Zm0.5,12.4c2.6,0 4.1,-1.3 4.1,-3.5c0,-2.1 -1.5,-3.5 -4.1,-3.5l-4.2,0l0,7l4.2,0Zm33.4,-0.6l-11.5,0l-2.1,6l-7,0l11.2,-29.7l7.7,0l11.1,29.7l-7.2,0l-2.2,-6Zm-9.3,-6l7.2,0l-3.6,-10.3l-3.6,10.3Zm36.8,-8.7c-0.2,-1.4 -1.3,-3.7 -4.9,-3.7c-2.5,0 -4.1,1.6 -4.1,3.2c0,1.4 0.9,2.5 2.9,2.9l4,0.8c5.7,1 8.6,4.7 8.6,8.9c0,4.7 -3.9,9.4 -11,9.4c-8.2,0 -11.7,-5.3 -12.2,-9.5l6.1,-1.5c0.3,2.7 2.1,5.1 6.2,5.1c2.6,0 4.2,-1.3 4.2,-3.1c0,-1.5 -1.2,-2.6 -3.2,-3l-4.1,-0.8c-5,-1 -8.1,-4.3 -8.1,-8.7c0,-5.6 4.9,-9.6 10.6,-9.6c7.4,0 10.2,4.4 10.9,7.9l-5.9,1.7Zm11.8,20.7l0,-29.7l18.8,0l0,6.2l-12.2,0l0,5.7l11.1,0l0,5.8l-11.1,0l0,5.7l12.2,0l0,6.3l-18.8,0Zm-121.9,-15.2l-14.9,0l0,5.6l7.4,0c-1.1,1.8 -3.2,3.7 -7,3.7c-4.4,0 -8.6,-3.2 -8.6,-8.8c0,-6.2 4.5,-9.1 8.5,-9.1c5.2,0 7.1,3.5 7.6,5.5l6.2,-2c-1,-4.3 -4.9,-10 -13.8,-10c-8.3,0 -15.3,6.3 -15.3,15.6c0,9.3 6.9,15.4 15.4,15.4c8.9,0 12.9,-5.8 14,-9.9c0.8,-2.4 0.5,-6 0.5,-6Zm19.4,-15.2c8.3,0 15.4,6.1 15.4,15.5c0,9.4 -7.1,15.5 -15.4,15.5c-8.4,0 -15.5,-6.1 -15.5,-15.5c0,-9.4 7.1,-15.5 15.5,-15.5Zm0,24.4c4.1,0 8.6,-2.8 8.6,-9c0,-6.2 -4.4,-9 -8.6,-9c-4.2,0 -8.6,2.8 -8.6,9c0,6.3 4.4,9 8.6,9Z" style="fill:#fff;fill-rule:nonzero;"/></svg>